<svg version="1" xmlns="http://www.w3.org/2000/svg" width="684" height="684" viewBox="0 0 513.000000 513.000000"><path d="M0 257.6C0 417.1.3 509 1 508.8c.5-.2 33-17.6 72.3-38.8l71.4-38.5-32.1-.5-32.1-.5-.3-7.3c-.2-5.2.1-7.4 1-7.7.7-.3 22-.4 47.3-.3l46 .3-12 6.4c-6.6 3.5-12.9 7-14 7.8-1.6 1.1 20.6 1.3 136.3 1.3H423v-16l-123.4-.2-123.5-.3 28.8-15.5 28.9-15.5-76.7-.5-76.6-.5-.3-7.3c-.2-5.2.1-7.4 1-7.7.7-.3 42-.4 91.8-.3l90.5.3-12.7 6.8c-7.1 3.8-12.8 7-12.8 7.3 0 .2 6.1.4 13.5.4H265v-15.5l29.8-16 29.7-16-122.2-.3L80 334v-15h273.5l-12.7 6.8c-7 3.7-13 7.1-13.4 7.5-.4.4 7.4.7 17.4.7H363v-14.9l-4.5-.3c-4.3-.3-2.9-1.1 51-30.2 30.5-16.4 55.5-30.1 55.5-30.5-.1-.3-27.9-15.7-62-34.1l-61.9-33.5 30-.3 29.9-.2v-15h-43.5c-23.9 0-43.5.2-43.5.4 0 .3 5.6 3.4 12.5 7.1 6.9 3.6 12.5 6.8 12.5 7.1 0 .2-58.3.4-129.5.4H79.9l.3-7.8.3-7.7 114.7-.5 114.6-.5-28.5-15.5-28.6-15.5 47.1-.3 47.2-.2v-16h-61.5c-33.8 0-61.5.2-61.5.4 0 .3 6.1 3.8 13.6 7.8l13.5 7.3-84.3.3c-46.4.1-84.9 0-85.6-.3-.9-.3-1.2-2.5-1-7.7l.3-7.3 70.5-.5 70.5-.5-29-15.7-29-15.8H423V78H278.8c-79.3 0-143.9.2-143.7.4.2.2 6.5 3.7 13.9 7.7l13.5 7.4-40 .3c-22 .1-40.6 0-41.3-.3-.9-.3-1.2-2.5-1-7.7l.3-7.3 26.2-.5 26.3-.5-65.9-35.8C30.9 22.1 1 6 .6 6 .3 6 0 119.2 0 257.6zm241-27.1v7.5H80v-15h161v7.5zm71 48v7.5H80v-15h232v7.5z"/></svg>